<svg width="825" height="276" viewBox="0 0 825 276" fill="none" xmlns="http://www.w3.org/2000/svg">
<rect x="0.806152" y="0.975189" width="824.194" height="274.05" fill="url(#paint0_linear)"/>
<path d="M459.776 94.1086C459.776 132.182 435.301 164.542 401.213 176.336C387.491 181.057 372.812 182.299 358.491 179.951C357.132 179.729 355.783 179.475 354.443 179.187C352.628 178.802 350.834 178.359 349.062 177.858C312.464 167.566 285.64 133.967 285.64 94.1086C285.64 46.0606 324.622 7.11053 372.708 7.11053C420.795 7.11053 459.776 46.0606 459.776 94.1086Z" fill="#E6E6E6" fill-opacity="0.3"/>
<path d="M318.174 120.96C318.021 121.042 317.906 121.182 317.856 121.348C317.805 121.514 317.822 121.693 317.904 121.847L350.639 183.111C350.722 183.264 350.861 183.379 351.027 183.429C351.194 183.48 351.373 183.462 351.527 183.381L397.801 158.695C397.955 158.613 398.069 158.473 398.12 158.307C398.17 158.141 398.153 157.961 398.071 157.808L365.336 96.5436C365.254 96.3905 365.114 96.2761 364.948 96.2256C364.781 96.1751 364.602 96.1926 364.448 96.2742L318.174 120.96Z" fill="#3F3D56"/>
<path d="M340.133 113.331C330.383 118.532 326.699 130.656 331.907 140.402L343.012 161.185C348.215 170.923 360.324 174.602 370.065 169.406L375.842 166.325C385.592 161.123 389.276 149 384.068 139.253L372.963 118.47C367.76 108.732 355.65 105.053 345.909 110.249L340.133 113.331ZM319.873 124.139L319.878 124.136L319.872 124.139L319.873 124.139Z" fill="white"/>
<path d="M332.829 128.914C332.191 129.254 332.055 130.248 332.526 131.128C332.996 132.009 333.898 132.449 334.536 132.109L364.615 116.063C365.253 115.722 365.389 114.729 364.918 113.848C364.447 112.967 363.546 112.527 362.908 112.868L332.829 128.914Z" fill="#E18C3D"/>
<path d="M336.536 135.85C335.898 136.19 335.762 137.183 336.233 138.064C336.703 138.945 337.605 139.385 338.243 139.044L368.322 122.998C368.96 122.658 369.096 121.665 368.625 120.784C368.155 119.903 367.253 119.463 366.615 119.804L336.536 135.85Z" fill="#E18C3D"/>
<path d="M340.242 142.785C339.604 143.126 339.468 144.119 339.939 145C340.41 145.881 341.311 146.321 341.949 145.98L372.028 129.934C372.666 129.594 372.802 128.6 372.331 127.72C371.861 126.839 370.959 126.399 370.321 126.739L340.242 142.785Z" fill="#E18C3D"/>
<path d="M343.948 149.721C343.31 150.061 343.174 151.055 343.645 151.935C344.115 152.816 345.017 153.256 345.655 152.915L375.733 136.87C376.371 136.529 376.507 135.536 376.037 134.655C375.566 133.774 374.664 133.334 374.026 133.675L343.948 149.721Z" fill="#E18C3D"/>
<path d="M347.654 156.656C347.016 156.997 346.88 157.99 347.351 158.871C347.821 159.752 348.723 160.192 349.361 159.851L379.439 143.805C380.077 143.465 380.213 142.471 379.743 141.591C379.272 140.71 378.37 140.27 377.732 140.611L347.654 156.656Z" fill="#E18C3D"/>
<path d="M360.348 78.1847C356.999 86.1533 362.522 95.0424 371.15 95.5688V95.5688C376.813 95.9144 382.003 92.4164 383.808 87.0377L383.903 86.7554C386.288 79.6486 381.943 72.0512 374.609 70.5027V70.5027C368.727 69.2611 362.793 72.369 360.464 77.9103L360.348 78.1847Z" fill="#2F2E41"/>
<path d="M373.15 88.7401C379.17 88.7401 384.05 83.8638 384.05 77.8486C384.05 71.8333 379.17 66.957 373.15 66.957C367.13 66.957 362.25 71.8333 362.25 77.8486C362.25 83.8638 367.13 88.7401 373.15 88.7401Z" fill="#FFB8B8"/>
<path d="M401.21 175.305C401.165 175.425 401.146 175.555 401.156 175.683V175.683C401.188 176.067 400.955 176.424 400.59 176.547C387.047 181.093 372.594 182.264 358.49 179.951V179.951C356.427 179.562 355.273 177.345 356.136 175.432L358.294 170.651L358.845 169.428C360.143 166.554 360.742 163.413 360.594 160.263L359.91 145.697L359.813 143.694L359.771 142.782C359.729 141.885 360.442 141.134 361.339 141.129V141.129L373.034 141.059L384.18 140.988V140.988C385.254 140.982 386.274 141.463 386.952 142.297C397.055 154.722 405.093 164.964 401.21 175.305Z" fill="#2F2E41"/>
<path d="M388.173 130.978C386.886 136.98 381.738 141.26 375.637 141.938L375.219 141.984C366.793 142.919 359.313 136.577 358.859 128.11V128.11C358.775 126.534 358.393 124.992 357.98 123.468C356.546 118.185 357.513 113.299 360.632 108.767C362.582 105.935 364.478 103.003 365.321 99.6693V99.6693C365.659 98.3316 366.358 97.1121 367.341 96.1436C367.632 95.8569 367.945 95.5954 368.276 95.3611C369.843 94.2513 371.723 93.6413 373.487 92.8804C376.112 91.7473 378.934 91.056 381.955 90.8169C384.228 90.6371 386.598 91.024 388.356 92.476C389.241 93.2069 390.009 94.0785 390.627 95.0626C391.861 97.0273 392.43 99.3363 392.249 101.649C391.431 111.973 390.137 121.815 388.173 130.978Z" fill="#E18C3D"/>
<path d="M365.926 64.4886C365.252 64.8032 364.549 65.0994 363.913 65.4835C362.288 66.4631 359.23 69.0295 359.124 74.5076C359.116 75.765 359.284 77.0172 359.623 78.2281C359.989 79.6013 360.282 82.5808 357.824 86.5526C356.218 89.1306 354.766 91.8013 353.476 94.5507L-nan -nanL-nan -nanL353.476 94.5507L356.655 94.8571C358.406 95.026 359.964 93.7465 360.139 91.9958L360.872 84.6506C361.381 79.5541 362.638 74.5603 364.602 69.8298V69.8298C364.619 69.7894 364.674 69.7821 364.697 69.8192C365.09 70.4502 367.645 74.2626 372.174 74.6098C372.51 74.6355 372.669 74.2355 372.424 74.0041V74.0041C372.124 73.7204 372.435 73.2131 372.825 73.3494C375.133 74.1567 379.182 75.4864 381.756 75.844C382.186 75.9038 382.592 76.0798 382.929 76.3529C383.267 76.626 383.523 76.986 383.671 77.394C383.819 77.8019 383.852 78.2425 383.768 78.6682C383.684 79.0939 383.485 79.4885 383.193 79.8097C383.171 79.8339 383.149 79.8581 383.126 79.8825C380.821 82.3188 376.234 87.9814 379.123 92.2478C379.366 92.6069 379.572 92.9445 379.746 93.2619C379.801 93.3635 383.855 95.332 383.955 95.2738V95.2738L385.083 94.5533C385.442 94.3244 385.913 94.5741 385.925 94.9993V94.9993C385.934 95.3263 386.226 95.5722 386.55 95.5256L396.064 94.1566C396.145 94.1449 396.226 94.1337 396.302 94.1018C396.717 93.9264 397.907 92.9891 394.05 88.4869C393.258 87.5617 392.448 86.615 392.05 85.464C391.733 84.5522 391.505 83.3856 391.806 82.2881C392.32 80.5633 392.417 78.7409 392.088 76.9714C390.577 69.7318 385.117 55.5317 365.926 64.4886Z" fill="#2F2E41"/>
<path d="M226.083 110.652C226 110.674 225.93 110.728 225.888 110.801C225.845 110.875 225.833 110.963 225.855 111.045L234.623 143.927C234.645 144.009 234.699 144.079 234.772 144.122C234.846 144.164 234.934 144.176 235.016 144.154L259.852 137.542C259.935 137.52 260.005 137.466 260.048 137.393C260.09 137.319 260.102 137.232 260.08 137.149L251.312 104.268C251.29 104.185 251.236 104.115 251.163 104.073C251.089 104.03 251.001 104.018 250.919 104.04L226.083 110.652Z" fill="#F2F2F2" fill-opacity="0.3"/>
<path d="M232.185 116.082C231.843 116.173 231.667 116.632 231.793 117.105C231.919 117.577 232.3 117.888 232.642 117.797L248.786 113.499C249.128 113.408 249.304 112.949 249.178 112.476C249.052 112.004 248.671 111.693 248.329 111.784L232.185 116.082Z" fill="white"/>
<path d="M233.179 119.805C232.836 119.896 232.66 120.355 232.786 120.828C232.912 121.3 233.293 121.611 233.636 121.52L249.78 117.222C250.122 117.131 250.298 116.672 250.172 116.199C250.046 115.727 249.665 115.416 249.322 115.507L233.179 119.805Z" fill="white"/>
<path d="M234.17 123.527C233.827 123.618 233.652 124.077 233.778 124.55C233.904 125.023 234.285 125.333 234.627 125.242L250.771 120.944C251.113 120.853 251.289 120.394 251.163 119.922C251.037 119.449 250.656 119.138 250.314 119.23L234.17 123.527Z" fill="white"/>
<path d="M235.164 127.25C234.821 127.341 234.645 127.8 234.771 128.272C234.897 128.745 235.278 129.055 235.621 128.964L251.764 124.667C252.107 124.575 252.283 124.117 252.157 123.644C252.031 123.171 251.65 122.861 251.307 122.952L235.164 127.25Z" fill="white"/>
<path d="M236.156 130.972C235.814 131.064 235.638 131.522 235.764 131.995C235.89 132.468 236.271 132.778 236.613 132.687L252.757 128.389C253.1 128.298 253.275 127.839 253.149 127.367C253.023 126.894 252.642 126.583 252.3 126.675L236.156 130.972Z" fill="white"/>
<path d="M237.148 134.695C236.806 134.786 236.63 135.245 236.756 135.717C236.882 136.19 237.263 136.501 237.606 136.409L253.749 132.112C254.092 132.02 254.268 131.562 254.142 131.089C254.016 130.616 253.634 130.306 253.292 130.397L237.148 134.695Z" fill="white"/>
<path d="M226.994 86.9235C226.919 86.9636 226.863 87.0319 226.838 87.1134C226.813 87.1948 226.822 87.2827 226.862 87.3578L242.902 117.376C242.942 117.451 243.01 117.507 243.092 117.532C243.173 117.557 243.261 117.548 243.336 117.508L266.01 105.413C266.085 105.372 266.141 105.304 266.166 105.223C266.191 105.141 266.182 105.053 266.142 104.978L250.102 74.9598C250.062 74.8848 249.994 74.8287 249.912 74.804C249.831 74.7792 249.743 74.7878 249.668 74.8278L226.994 86.9235Z" fill="#E6E6E6" fill-opacity="0.3"/>
<path d="M239.171 82.4293C233.612 85.3951 231.511 92.3075 234.481 97.8649L238.41 105.219C241.377 110.771 248.281 112.869 253.835 109.906V109.906C259.395 106.94 261.495 100.028 258.526 94.4705L254.596 87.1165C251.629 81.5644 244.725 79.4663 239.171 82.4293V82.4293Z" fill="white" fill-opacity="0.3"/>
<path d="M234.174 90.8204C233.862 90.9871 233.795 91.474 234.026 91.9055C234.256 92.337 234.698 92.5526 235.011 92.3858L249.748 84.5236C250.061 84.3569 250.128 83.87 249.897 83.4385C249.666 83.007 249.225 82.7914 248.912 82.9582L234.174 90.8204Z" fill="#E18C3D"/>
<path d="M235.992 94.2186C235.679 94.3854 235.612 94.8722 235.843 95.3037C236.073 95.7352 236.515 95.9508 236.828 95.7841L251.566 87.9219C251.878 87.7551 251.945 87.2683 251.714 86.8368C251.484 86.4053 251.042 86.1897 250.729 86.3565L235.992 94.2186Z" fill="#E18C3D"/>
<path d="M237.805 97.6169C237.493 97.7837 237.426 98.2705 237.657 98.702C237.887 99.1335 238.329 99.3491 238.642 99.1823L253.38 91.3201C253.692 91.1534 253.759 90.6665 253.528 90.235C253.298 89.8035 252.856 89.5879 252.543 89.7547L237.805 97.6169Z" fill="#E18C3D"/>
<path d="M239.622 101.015C239.309 101.182 239.243 101.669 239.473 102.1C239.704 102.532 240.146 102.747 240.458 102.581L255.196 94.7184C255.509 94.5516 255.575 94.0648 255.345 93.6333C255.114 93.2018 254.672 92.9862 254.36 93.153L239.622 101.015Z" fill="#E18C3D"/>
<path d="M241.439 104.414C241.127 104.581 241.06 105.068 241.291 105.499C241.521 105.931 241.963 106.146 242.276 105.979L257.014 98.1172C257.326 97.9504 257.393 97.4636 257.162 97.0321C256.932 96.6006 256.49 96.385 256.177 96.5517L241.439 104.414Z" fill="#E18C3D"/>
<path d="M243.254 107.812C242.942 107.978 242.875 108.465 243.106 108.897C243.336 109.328 243.778 109.544 244.091 109.377L258.828 101.515C259.141 101.348 259.208 100.861 258.977 100.43C258.747 99.9983 258.305 99.7827 257.992 99.9495L243.254 107.812Z" fill="#E18C3D"/>
<path d="M447.318 163.635C447.244 163.592 447.157 163.579 447.074 163.6C446.992 163.622 446.921 163.675 446.877 163.748L429.551 193.044C429.508 193.117 429.496 193.204 429.517 193.287C429.538 193.369 429.591 193.44 429.665 193.483L451.792 206.549C451.866 206.592 451.953 206.605 452.036 206.584C452.118 206.562 452.189 206.509 452.232 206.436L469.559 177.14C469.602 177.067 469.614 176.979 469.593 176.897C469.572 176.815 469.519 176.744 469.445 176.701L447.318 163.635Z" fill="#E6E6E6" fill-opacity="0.3"/>
<path d="M457.474 171.684C452.053 168.483 445.065 170.28 441.861 175.698L437.615 182.877C434.408 188.3 436.207 195.297 441.633 198.5V198.5C447.053 201.701 454.041 199.904 457.246 194.486L461.491 187.308C464.699 181.884 462.899 174.888 457.474 171.684V171.684ZM446.417 165.155L446.42 165.157L446.417 165.155L446.417 165.155Z" fill="white" fill-opacity="0.3"/>
<path d="M447.717 171.79C447.412 171.61 446.962 171.806 446.712 172.227C446.463 172.649 446.509 173.138 446.814 173.318L461.197 181.811C461.502 181.991 461.953 181.795 462.202 181.374C462.451 180.952 462.406 180.463 462.101 180.283L447.717 171.79Z" fill="#E18C3D"/>
<path d="M445.757 175.107C445.451 174.927 445.001 175.123 444.752 175.544C444.502 175.965 444.548 176.454 444.853 176.634L459.236 185.127C459.541 185.307 459.992 185.111 460.241 184.69C460.49 184.269 460.445 183.78 460.14 183.599L445.757 175.107Z" fill="#E18C3D"/>
<path d="M443.795 178.424C443.49 178.243 443.039 178.44 442.79 178.861C442.541 179.282 442.586 179.771 442.891 179.951L457.274 188.444C457.579 188.624 458.03 188.428 458.279 188.007C458.528 187.586 458.483 187.096 458.178 186.916L443.795 178.424Z" fill="#E18C3D"/>
<path d="M441.833 181.74C441.528 181.56 441.077 181.756 440.828 182.177C440.579 182.598 440.625 183.088 440.93 183.268L455.313 191.76C455.618 191.941 456.069 191.744 456.318 191.323C456.567 190.902 456.521 190.413 456.216 190.233L441.833 181.74Z" fill="#E18C3D"/>
<path d="M439.872 185.056C439.567 184.876 439.116 185.072 438.867 185.494C438.618 185.915 438.664 186.404 438.969 186.584L453.352 195.077C453.657 195.257 454.108 195.061 454.357 194.64C454.606 194.218 454.56 193.729 454.255 193.549L439.872 185.056Z" fill="#E18C3D"/>
<path d="M437.911 188.373C437.606 188.193 437.155 188.389 436.906 188.81C436.657 189.231 436.702 189.721 437.007 189.901L451.39 198.394C451.695 198.574 452.146 198.378 452.395 197.956C452.644 197.535 452.599 197.046 452.294 196.866L437.911 188.373Z" fill="#E18C3D"/>
<path d="M369.5 110.382C368.303 110.347 367.264 111.205 367.073 112.388V112.388L363.781 132.665C363.628 133.605 363.409 134.532 363.124 135.441L361.341 141.129L360.564 143.611L359.912 145.698L351.986 170.994L351.294 172.618C350.347 174.84 348.235 176.397 346.878 178.395V178.395C346.164 179.447 345.796 180.696 345.827 181.966C345.858 183.237 346.285 184.467 347.05 185.483C347.814 186.499 348.877 187.251 350.091 187.634C351.304 188.016 352.606 188.011 353.816 187.617C355.026 187.224 356.082 186.463 356.838 185.44C357.593 184.417 358.01 183.184 358.03 181.913V181.913C358.066 179.56 357.513 177.038 358.443 174.876L372.461 142.292L373.036 141.059L373.497 140.07C374.359 138.225 374.933 136.26 375.201 134.241L378.122 112.218V112.218C378.234 111.375 377.592 110.62 376.742 110.595L369.5 110.382Z" fill="#FFB8B8"/>
<path d="M379.921 106.041C380.081 109.3 376.654 111.599 373.394 111.47V111.47C369.864 111.331 366.31 108.478 366.715 104.968L367.229 100.515C367.27 100.162 367.277 99.8067 367.295 99.4523C367.37 98.0314 367.937 96.6739 368.907 95.6171C369.997 94.4288 371.511 93.7156 373.122 93.6309C374.754 93.5451 376.352 94.1103 377.566 95.2022C378.781 96.2941 379.511 97.8232 379.597 99.4532L379.598 99.4744L379.921 106.041Z" fill="#E18C3D"/>
<ellipse cx="151.125" cy="61.3884" rx="13.2935" ry="12.2709" fill="#C4C4C4" fill-opacity="0.3"/>
<circle cx="211.456" cy="107.323" r="14.316" fill="#C4C4C4" fill-opacity="0.3"/>
<ellipse cx="151.125" cy="159.555" rx="13.2935" ry="12.2709" fill="#C4C4C4" fill-opacity="0.3"/>
<circle cx="738.081" cy="83.8036" r="52.1512" fill="#C4C4C4" fill-opacity="0.3"/>
<defs>
<linearGradient id="paint0_linear" x1="701.269" y1="138" x2="-339.711" y2="666.67" gradientUnits="userSpaceOnUse">
<stop stop-color="#E18C3D"/>
<stop offset="0.826666" stop-color="#494A5C"/>
</linearGradient>
</defs>
</svg>
