<svg width="319" height="105" viewBox="0 0 319 105" fill="none" xmlns="http://www.w3.org/2000/svg">
<path d="M30.8068 9.72581L29.3119 8.75418L29.5842 8.25493H30.0651C30.2282 8.25493 30.3887 8.21446 30.5323 8.13716C30.6758 8.05987 30.798 7.94815 30.8877 7.81203C30.9775 7.67591 31.032 7.51964 31.0465 7.35724C31.061 7.19483 31.035 7.03137 30.9708 6.8815L29.9442 4.53071C29.7854 4.08293 29.4917 3.69536 29.1036 3.42126C28.7156 3.14716 28.2521 3 27.777 3C27.3019 3 26.8384 3.14716 26.4503 3.42126C26.0622 3.69536 25.7686 4.08293 25.6097 4.53071L24.5832 6.8815C24.5189 7.03137 24.4929 7.19483 24.5074 7.35724C24.5219 7.51964 24.5765 7.67591 24.6662 7.81203C24.756 7.94815 24.8781 8.05987 25.0217 8.13716C25.1653 8.21446 25.3258 8.25493 25.4888 8.25493H25.9697L26.242 8.75418L24.7472 9.72581C24.5174 9.87453 24.3287 10.0785 24.1981 10.319C24.0676 10.5596 23.9995 10.829 24 11.1027V12.853H31.5539V11.1027C31.5545 10.829 31.4863 10.5596 31.3558 10.319C31.2253 10.0785 31.0365 9.87454 30.8068 9.72581V9.72581ZM30.8971 12.1961H24.6569V11.1027C24.6566 10.9385 24.6974 10.7768 24.7758 10.6325C24.8541 10.4882 24.9674 10.3658 25.1052 10.2766L27.1099 8.97352L26.3596 7.59806H25.4888C25.4345 7.59806 25.3811 7.5846 25.3333 7.55889C25.2855 7.53318 25.2448 7.49602 25.2148 7.45073C25.1849 7.40544 25.1666 7.35344 25.1617 7.29937C25.1568 7.24531 25.1654 7.19087 25.1866 7.14092L26.2165 4.78237L26.2257 4.75891C26.3379 4.43693 26.5476 4.15785 26.8255 3.96036C27.1035 3.76288 27.436 3.65678 27.777 3.65678C28.1179 3.65678 28.4505 3.76288 28.7284 3.96036C29.0064 4.15785 29.216 4.43693 29.3282 4.75891L29.3323 4.77081L30.3673 7.14092C30.3886 7.19087 30.3971 7.24531 30.3922 7.29937C30.3873 7.35344 30.3691 7.40544 30.3391 7.45073C30.3092 7.49602 30.2685 7.53318 30.2207 7.55889C30.1729 7.5846 30.1194 7.59806 30.0651 7.59806H29.1943L28.4441 8.97352L30.4488 10.2766C30.5866 10.3658 30.6999 10.4882 30.7782 10.6325C30.8565 10.7768 30.8974 10.9385 30.8971 11.1027V12.1961Z" fill="#F55F44"/>
<circle cx="306" cy="100" r="5" fill="#FDA42D"/>
<rect x="311" width="8" height="8" fill="#6856D6"/>
<rect y="69" width="8" height="8" fill="#FC7056"/>
</svg>
