<svg width="33" height="33" viewBox="0 0 33 33" fill="none" xmlns="http://www.w3.org/2000/svg">
<path d="M16.5 33C7.37647 33 0 25.6235 0 16.5C0 7.37647 7.37647 0 16.5 0C25.6235 0 33 7.37647 33 16.5C33 25.6235 25.5265 33 16.5 33ZM16.5 1.94118C8.44412 1.94118 1.94118 8.44412 1.94118 16.5C1.94118 24.5559 8.44412 31.0588 16.5 31.0588C24.5559 31.0588 31.0588 24.5559 31.0588 16.5C31.0588 8.44412 24.4588 1.94118 16.5 1.94118Z" fill="#449ED0"/>
<path d="M6.98827 28.4383L5.24121 27.6618C5.72651 26.4971 7.27945 25.8177 8.92945 25.0412C10.5794 24.2647 12.6177 23.3912 12.6177 22.3236V20.8677C12.0353 20.3824 11.0647 19.3147 10.8706 17.7618C10.3853 17.2765 9.60886 16.403 9.60886 15.2383C9.60886 14.5589 9.90003 13.9765 10.0942 13.5883C9.90003 12.8118 9.70592 11.3559 9.70592 10.1912C9.70592 6.40591 12.3265 3.88239 16.5 3.88239C17.6647 3.88239 19.1206 4.17356 19.8971 5.04709C21.7412 5.43533 23.2942 7.57062 23.2942 10.1912C23.2942 11.8412 23.003 13.2 22.8089 13.8794C23.003 14.1706 23.1971 14.6559 23.1971 15.2383C23.1971 16.5 22.5177 17.3736 21.9353 17.7618C21.7412 19.3147 20.8677 20.2853 20.2853 20.7706V22.3236C20.2853 23.1971 22.0324 23.8765 23.5853 24.4589C25.4294 25.1383 27.3706 25.9147 28.05 27.4677L26.2059 28.1471C25.9147 27.3706 24.3618 26.7883 22.9059 26.303C20.7706 25.5265 18.3442 24.653 18.3442 22.4206V19.8971L18.8294 19.6059C18.8294 19.6059 19.9942 18.8294 19.9942 17.2765V16.5971L20.5765 16.3059C20.6736 16.3059 21.1589 16.0147 21.1589 15.2383C21.1589 15.0442 20.9647 14.753 20.8677 14.6559L20.4794 14.2677L20.6736 13.7824C20.6736 13.7824 21.1589 12.2294 21.1589 10.2883C21.1589 8.44415 20.0912 7.08533 19.2177 7.08533H18.6353L18.3442 6.60003C18.3442 6.2118 17.6647 5.82356 16.5 5.82356C13.4912 5.82356 11.6471 7.47356 11.6471 10.1912C11.6471 11.453 12.1324 13.5883 12.1324 13.5883L12.2294 14.0736L11.8412 14.5589C11.7442 14.5589 11.55 14.85 11.55 15.2383C11.55 15.7236 12.1324 16.3059 12.4236 16.5L12.8118 16.7912V17.2765C12.8118 18.7324 14.0736 19.5089 14.0736 19.6059L14.5589 19.8971V22.4206C14.5589 24.75 12.0353 25.9147 9.70592 26.8853C8.63827 27.2736 7.18239 27.953 6.98827 28.4383Z" fill="#449ED0"/>
</svg>
